<svg width="256" height="140" viewBox="0 0 256 140" fill="none" xmlns="http://www.w3.org/2000/svg">
<g clip-path="url(#clip0_8513_665)">
<path d="M0 102.59V29.377H15.167V50.7212C18.1544 46.8196 24.1293 43.6065 32.4022 43.6065C50.3268 43.6065 60.6679 56.9179 60.6679 72.9835C60.6679 89.2786 50.0969 102.361 32.4022 102.361C24.3591 102.361 17.6948 98.6884 15.167 95.4753V102.361H0V102.59ZM30.1041 89.0491C39.526 89.0491 45.5009 82.1638 45.5009 73.213C45.5009 64.0327 39.7558 57.1474 30.1041 57.1474C20.4524 57.1474 14.7074 63.8032 14.7074 73.213C14.4776 82.8524 20.4524 89.0491 30.1041 89.0491Z" fill="white"/>
<path d="M157.185 68.6238V102.591H141.329V68.6238C141.329 59.673 136.273 56.9189 130.068 56.9189C125.702 56.9189 119.268 59.4435 119.038 70.4599V102.361H103.411V68.6238C103.411 59.673 98.1258 56.9189 92.3807 56.9189C87.5549 56.9189 81.3502 59.4435 81.3502 72.0664V102.361H65.7236V44.0664H81.3502V50.2631C85.2568 46.8205 91.9211 44.0664 96.5172 44.0664C105.25 44.0664 110.995 47.05 115.131 51.8697C119.497 47.05 125.932 44.0664 133.745 44.0664C149.831 44.0664 157.185 53.7057 157.185 68.6238Z" fill="white"/>
<path d="M162.011 93.8697L170.054 83.3123C174.42 86.2959 181.774 89.2795 188.438 89.2795C193.264 89.2795 196.711 87.2139 196.711 84.2303C196.711 80.5582 188.668 80.0992 185.68 79.6402C177.867 78.0336 163.16 75.968 163.16 61.7385C163.16 45.2139 181.314 44.0664 186.6 44.0664C195.562 44.0664 202.916 46.591 210.269 52.0992L202.226 62.4271C198.09 59.9025 192.345 57.1484 186.14 57.1484C183.153 57.1484 178.786 58.5254 178.786 61.2795C178.786 64.9517 187.059 65.8697 189.587 66.3287C199.239 67.9353 212.337 69.5418 212.337 84.0008C212.337 95.7057 203.835 102.361 188.898 102.361C176.488 102.591 168.215 98.6894 162.011 93.8697Z" fill="white"/>
<path d="M241.063 19.2786C228.424 30.754 219.921 37.8688 219.002 36.9508C218.083 36.0327 225.207 27.3114 236.697 14.918C237.386 15.6065 238.305 16.295 238.995 16.9835C239.684 17.9016 240.373 18.5901 241.063 19.2786Z" fill="#F9AE3B"/>
<path d="M249.566 31.6726C232.56 43.3776 218.542 48.1972 213.257 42.9185C207.971 37.6399 212.797 23.6399 224.517 6.65625C226.356 7.57428 228.194 8.72182 230.032 9.86936C217.853 25.7054 211.648 37.8694 215.095 41.0825C218.542 44.5251 230.722 38.3284 246.348 26.1644C247.497 27.771 248.646 29.6071 249.566 31.6726Z" fill="#F9AE3B"/>
<path d="M197.63 28.2295C196.252 28.2295 195.102 17.2131 194.413 0C196.481 0 198.55 0 200.618 0C200.158 17.2131 199.009 28.2295 197.63 28.2295Z" fill="#F9AE3B"/>
<path d="M182.693 32.3602C181.544 33.0487 175.11 24.0979 165.917 9.6389C167.756 8.49135 169.594 7.34381 171.433 6.42578C179.246 21.5733 183.842 31.6717 182.693 32.3602Z" fill="#F9AE3B"/>
<path d="M197.63 36.4927C190.277 36.4927 183.612 23.1812 179.936 2.75499C182.004 2.06647 184.072 1.60745 186.14 1.14844C188.668 20.8861 192.804 33.9681 197.63 33.9681C202.456 33.9681 206.593 20.8861 209.12 1.14844C211.189 1.60745 213.257 2.06647 215.325 2.75499C211.648 22.9517 205.214 36.4927 197.63 36.4927Z" fill="#F9AE3B"/>
<path d="M256 61.5083C238.765 60.8197 227.734 59.6722 227.734 58.2951C227.734 56.9181 238.765 55.7706 256 55.082C256 57.3771 256 59.4427 256 61.5083Z" fill="#F9AE3B"/>
<path d="M246.578 90.1964C232.101 81.0161 223.138 74.5899 223.828 73.4423C224.517 72.2948 234.628 76.8849 249.795 84.6882C248.876 86.5243 247.727 88.3604 246.578 90.1964Z" fill="#F9AE3B"/>
<path d="M253.242 75.9673C233.02 72.2952 219.461 65.6394 219.461 58.2952C219.461 50.9509 232.79 44.2952 253.242 40.623C253.932 42.6886 254.391 44.7542 254.851 46.8198C235.088 49.3444 221.989 53.4755 221.989 58.2952C221.989 63.1148 235.088 67.246 254.851 69.7706C254.621 71.8362 253.932 73.9017 253.242 75.9673Z" fill="#F9AE3B"/>
<path d="M131.907 114.065V130.589C131.907 130.819 132.137 131.048 132.366 131.048H135.813C136.043 131.048 136.273 130.819 136.273 130.589V116.13V114.065C136.273 113.835 136.043 113.606 135.813 113.606H132.366C132.137 113.376 131.907 113.606 131.907 114.065Z" fill="white"/>
<path d="M174.65 126.46L171.663 124.853C171.433 124.624 171.203 124.853 170.973 125.083C170.284 126.001 169.135 126.689 167.986 126.919C167.756 126.919 167.756 126.919 167.756 126.919C165.228 126.919 163.16 125.083 163.16 122.558C163.16 120.263 164.998 118.198 167.526 118.198C167.756 118.198 167.986 118.198 168.216 118.198C169.365 118.427 170.514 119.116 171.203 120.034C171.433 120.263 171.663 120.263 171.892 120.263L174.88 118.657C175.11 118.427 175.339 118.198 175.11 117.968C173.501 115.673 170.973 114.296 168.216 114.066C167.986 114.066 167.986 114.066 167.756 114.066C162.93 114.066 159.023 117.968 159.023 122.788C159.023 127.607 162.93 131.509 167.756 131.509C167.986 131.509 167.986 131.509 168.216 131.509C170.973 131.28 173.501 129.902 175.11 127.607C175.11 126.919 174.88 126.46 174.65 126.46Z" fill="white"/>
<path d="M156.496 131.05V124.624V124.394C156.496 124.165 156.266 123.935 156.266 123.706L153.048 121.87C152.359 121.411 152.129 121.87 152.129 122.099C152.129 124.624 150.291 126.46 147.763 126.46C145.235 126.46 143.397 124.624 143.397 122.099C143.397 120.034 144.776 118.427 146.614 117.968C147.303 117.739 146.844 117.279 146.844 117.279L144.086 114.755C143.856 114.525 143.627 114.525 143.167 114.525C143.167 114.525 143.167 114.525 142.937 114.755C140.639 116.361 139.031 119.116 139.031 122.099C139.031 126.919 142.937 130.82 147.763 130.82C149.372 130.82 150.75 130.361 152.129 129.673V130.82V131.05C151.899 133.345 150.061 135.181 147.763 135.181C147.763 135.181 147.533 135.181 147.303 135.181C145.235 134.952 143.627 133.345 143.397 131.279C143.397 131.05 143.167 130.82 142.937 130.82H139.49C139.26 130.82 139.031 131.05 139.031 131.279C139.031 131.509 139.031 131.739 139.031 131.968C139.72 136.099 143.167 139.312 147.303 139.542C147.533 139.542 147.533 139.542 147.533 139.542C152.359 139.542 156.266 135.64 156.496 131.05Z" fill="white"/>
<path d="M152.129 109.246L154.197 114.066C154.427 114.296 153.968 114.525 153.738 114.296L151.899 112.689H151.67L150.291 112.919C150.061 112.919 149.831 112.689 150.061 112.46L151.44 109.476C151.899 109.017 152.129 109.017 152.129 109.246Z" fill="#A74C9A"/>
<path d="M158.794 114.525L154.887 117.968C154.657 118.198 154.198 117.968 154.427 117.739L155.576 115.443V115.214L155.117 114.066C155.117 113.837 155.117 113.607 155.347 113.607L158.794 113.837C158.794 113.837 159.023 114.296 158.794 114.525Z" fill="#52A1D8"/>
<path d="M156.036 122.328L151.44 119.574C151.21 119.344 151.21 118.885 151.67 119.115L153.968 119.344H154.197L155.117 118.656C155.346 118.426 155.576 118.656 155.576 118.885L156.266 122.098C156.495 122.098 156.266 122.328 156.036 122.328Z" fill="#FFC907"/>
<path d="M147.533 121.87L148.682 116.821C148.682 116.591 149.142 116.591 149.372 116.821L149.831 119.345C149.831 119.345 149.831 119.575 150.061 119.575L150.98 120.263C151.21 120.263 151.21 120.722 150.98 120.722L147.993 122.329C147.763 122.329 147.533 122.099 147.533 121.87Z" fill="#E2292D"/>
<path d="M145.235 113.836L150.521 113.377C150.75 113.377 150.98 113.836 150.75 113.836L148.452 114.984C148.452 114.984 148.223 114.984 148.223 115.213L147.993 116.361C147.993 116.59 147.763 116.59 147.533 116.59L145.005 114.295C145.005 114.295 145.005 113.836 145.235 113.836Z" fill="#1AA44A"/>
<path d="M180.165 113.836H179.246V117.967H180.165V113.836Z" fill="white"/>
<path d="M183.842 114.983C184.072 115.213 184.072 115.442 184.072 115.901V117.967H183.382V116.131C183.382 115.901 183.382 115.672 183.153 115.672C182.923 115.442 182.923 115.442 182.693 115.442C182.463 115.442 182.233 115.442 182.004 115.672C181.774 115.901 181.774 116.131 181.774 116.36V117.967H181.084V114.754H181.774V115.442C182.004 114.983 182.463 114.754 182.923 114.754C183.382 114.754 183.612 114.754 183.842 114.983Z" fill="white"/>
<path d="M186.37 115.442C186.14 115.442 186.14 115.442 186.14 115.442C185.91 115.442 185.681 115.442 185.681 115.442L185.451 115.672C185.451 115.672 185.451 115.901 185.681 115.901C185.681 115.901 185.91 115.901 186.14 116.131C186.37 116.131 186.6 116.36 186.6 116.36C186.83 116.36 186.83 116.59 187.059 116.59C187.059 116.819 187.289 116.819 187.289 117.049C187.289 117.278 187.059 117.508 186.83 117.738C186.6 117.967 186.37 117.967 185.91 117.967C185.681 117.967 185.451 117.967 185.221 117.738C184.991 117.738 184.761 117.508 184.531 117.508L184.761 117.049C184.991 117.278 184.991 117.278 185.221 117.278C185.451 117.278 185.681 117.278 185.681 117.278C185.681 117.278 185.91 117.278 186.14 117.278L186.37 117.049C186.37 117.049 186.37 116.819 186.14 116.819C186.14 116.819 185.91 116.59 185.681 116.59C185.451 116.59 185.221 116.36 185.221 116.36C184.991 116.36 184.991 116.131 184.761 116.131C184.761 115.901 184.531 115.901 184.531 115.672C184.531 115.442 184.761 115.213 184.991 114.983C185.221 114.754 185.451 114.754 185.91 114.754C186.14 114.754 186.37 114.754 186.6 114.754C186.83 114.754 187.059 114.983 187.059 114.983L186.83 115.442C186.83 115.442 186.6 115.442 186.37 115.442Z" fill="white"/>
<path d="M189.817 117.739C189.587 117.968 189.357 117.968 188.898 117.968C188.668 117.968 188.438 117.968 188.208 117.739C187.978 117.509 187.978 117.28 187.978 117.05V115.443H187.519V114.984H187.978V114.066H188.668V114.755H189.587V115.214H188.668V116.591C188.668 116.821 188.668 116.821 188.668 116.821H188.898C189.127 116.821 189.357 116.821 189.357 116.591L189.817 117.739Z" fill="white"/>
<path d="M191.196 113.378L191.425 113.607C191.425 113.837 191.425 113.837 191.196 113.837L190.966 114.066C190.966 114.066 190.736 114.066 190.736 113.837L190.506 113.607C190.506 113.378 190.506 113.378 190.736 113.378L190.966 113.148C190.966 113.378 190.966 113.378 191.196 113.378ZM190.276 114.755H190.966V117.968H190.276V114.755Z" fill="white"/>
<path d="M193.953 117.739C193.723 117.968 193.494 117.968 193.034 117.968C192.804 117.968 192.574 117.968 192.345 117.739C192.115 117.509 192.115 117.28 192.115 117.05V115.443H191.655V114.984H192.115V114.066H193.034V114.755H193.953V115.214H193.034V116.591C193.034 116.821 193.034 116.821 193.034 116.821H193.264C193.494 116.821 193.723 116.821 193.723 116.591L193.953 117.739Z" fill="white"/>
<path d="M197.63 114.754V117.967H196.941V117.278C196.711 117.738 196.251 117.967 195.792 117.967C195.332 117.967 195.102 117.967 194.873 117.738C194.643 117.508 194.643 117.279 194.643 116.819V114.754H195.332V116.59C195.332 116.819 195.332 117.049 195.562 117.049C195.792 117.278 195.792 117.278 196.022 117.278C196.251 117.278 196.481 117.278 196.711 117.049C196.941 116.819 196.941 116.59 196.941 116.36V114.754H197.63Z" fill="white"/>
<path d="M200.388 117.739C200.158 117.968 199.928 117.968 199.469 117.968C199.239 117.968 199.009 117.968 198.779 117.739C198.549 117.509 198.549 117.28 198.549 117.05V115.443H198.09V114.984H198.549V114.066H199.239V114.755H200.158V115.214H199.239V116.591C199.239 116.821 199.239 116.821 199.239 116.821H199.469C199.469 116.821 199.698 116.821 199.928 116.591L200.388 117.739Z" fill="white"/>
<path d="M203.605 115.213C203.835 115.442 204.065 115.901 204.065 116.36V116.59H201.767C201.767 116.819 201.996 117.049 201.996 117.049C202.226 117.278 202.456 117.278 202.686 117.278C202.686 117.278 202.916 117.278 203.145 117.278C203.375 117.278 203.375 117.049 203.605 117.049L204.065 117.508C203.835 117.738 203.605 117.738 203.375 117.967C203.145 117.967 202.916 118.197 202.686 118.197C202.456 118.197 201.996 118.197 201.767 117.967C201.537 117.738 201.307 117.738 201.077 117.508C200.847 117.278 200.847 117.049 200.847 116.59C200.847 116.36 200.847 115.901 201.077 115.672C201.307 115.442 201.307 115.213 201.767 114.983C201.996 114.754 202.226 114.754 202.686 114.754C202.916 114.754 203.375 114.754 203.605 115.213ZM203.145 116.131C203.145 115.901 203.145 115.672 202.916 115.672C202.686 115.442 202.686 115.442 202.226 115.442C201.996 115.442 201.767 115.442 201.537 115.672C201.307 115.901 201.307 115.901 201.307 116.131H203.145Z" fill="white"/>
<path d="M207.052 115.673C207.282 115.673 207.282 115.902 207.512 116.132C207.512 116.361 207.742 116.591 207.742 116.82C207.742 117.05 207.742 117.279 207.512 117.509C207.512 117.738 207.282 117.738 207.052 117.968C206.822 117.968 206.593 118.197 206.363 118.197C206.133 118.197 205.903 118.197 205.673 117.968C205.443 117.968 205.214 117.738 205.214 117.509C205.214 117.279 204.984 117.05 204.984 116.82C204.984 116.591 204.984 116.361 205.214 116.132C205.214 115.902 205.443 115.902 205.673 115.673C205.903 115.673 206.133 115.443 206.363 115.443C206.593 115.443 206.822 115.443 207.052 115.673ZM205.903 116.132C205.673 116.361 205.673 116.361 205.673 116.591C205.673 116.82 205.673 117.05 205.903 117.05C206.133 117.279 206.133 117.279 206.363 117.279C206.593 117.279 206.822 117.279 206.822 117.05C207.052 116.82 207.052 116.82 207.052 116.591C207.052 116.361 207.052 116.132 206.822 116.132C206.593 116.132 206.593 115.902 206.363 115.902C206.133 115.902 205.903 116.132 205.903 116.132Z" fill="white"/>
<path d="M208.89 114.984V115.214V115.443H209.58V115.902H208.89V117.738H208.201V115.902H207.971V115.443H208.201V115.214C208.201 114.984 208.201 114.984 208.431 114.755C208.431 114.525 208.661 114.525 208.661 114.525C208.89 114.525 208.89 114.525 209.12 114.525C209.35 114.525 209.35 114.525 209.58 114.525V114.984C209.35 114.984 209.35 114.984 209.35 114.984H208.89Z" fill="white"/>
<path d="M182.004 122.787H182.693V124.394C182.463 124.623 182.233 124.623 182.004 124.853C181.774 124.853 181.314 125.082 181.084 125.082C180.625 125.082 180.395 125.082 179.935 124.853C179.706 124.623 179.246 124.394 179.246 124.164C179.016 123.935 179.016 123.476 179.016 123.017C179.016 122.558 179.016 122.328 179.246 121.869C179.476 121.64 179.706 121.181 180.165 121.181C180.625 120.951 180.855 120.951 181.314 120.951C181.544 120.951 182.004 120.951 182.233 121.181C182.463 121.181 182.693 121.41 182.923 121.64H182.233C182.004 121.41 181.774 121.41 181.774 121.181C181.544 121.181 181.314 120.951 181.084 120.951C180.855 120.951 180.625 120.951 180.395 121.181C180.165 121.41 179.935 121.41 179.935 121.64C179.706 121.869 179.706 122.099 179.706 122.328C179.706 122.558 179.706 122.787 179.935 123.017C180.165 123.246 180.165 123.476 180.395 123.476C180.625 123.705 180.855 123.705 181.084 123.705C181.084 123.705 181.314 123.705 181.544 123.705C181.774 123.705 181.774 123.705 182.004 123.476V122.787Z" fill="white"/>
<path d="M184.302 120.262H183.612V124.622H184.302V120.262Z" fill="white"/>
<path d="M187.749 121.639C187.978 121.868 188.208 121.868 188.438 122.098C188.668 122.327 188.668 122.557 188.668 123.016C188.668 123.245 188.668 123.704 188.438 123.934C188.208 124.163 188.208 124.393 187.749 124.622C187.519 124.852 187.289 124.852 186.829 124.852C186.6 124.852 186.14 124.852 185.91 124.622C185.68 124.393 185.451 124.393 185.221 123.934C184.991 123.704 184.991 123.475 184.991 123.016C184.991 122.786 184.991 122.327 185.221 122.098C185.451 121.868 185.451 121.639 185.91 121.639C186.14 121.639 186.6 121.639 186.829 121.639C187.289 121.639 187.519 121.639 187.749 121.639ZM186.14 122.557C185.91 122.786 185.91 123.016 185.91 123.245C185.91 123.475 185.91 123.704 186.14 123.934C186.37 124.163 186.6 124.163 186.829 124.163C187.059 124.163 187.289 124.163 187.519 123.934C187.749 123.704 187.749 123.475 187.749 123.245C187.749 123.016 187.749 122.786 187.519 122.557C187.289 122.327 187.059 122.327 186.829 122.327C186.6 122.098 186.37 122.327 186.14 122.557Z" fill="white"/>
<path d="M191.885 121.639C192.115 121.868 192.345 121.868 192.345 122.327C192.574 122.557 192.574 122.786 192.574 123.245C192.574 123.475 192.574 123.934 192.345 124.163C192.115 124.393 192.115 124.622 191.885 124.622C191.655 124.852 191.425 124.852 191.196 124.852C190.966 124.852 190.736 124.852 190.506 124.622C190.276 124.622 190.276 124.393 190.047 124.163V124.622H189.357V120.262H190.047V122.098C190.276 121.868 190.276 121.868 190.506 121.639C190.736 121.639 190.966 121.409 191.196 121.409C191.425 121.639 191.655 121.639 191.885 121.639ZM191.655 123.934C191.885 123.704 191.885 123.475 191.885 123.245C191.885 123.016 191.885 122.786 191.655 122.557C191.425 122.327 191.196 122.327 190.966 122.327C190.736 122.327 190.506 122.327 190.276 122.557C190.047 122.786 190.047 123.016 190.047 123.245C190.047 123.475 190.047 123.704 190.276 123.934C190.506 124.163 190.736 124.163 190.966 124.163C191.196 124.163 191.425 123.934 191.655 123.934Z" fill="white"/>
<path d="M195.332 124.853V124.394C195.332 124.623 195.102 124.623 194.872 124.623C194.643 124.623 194.413 124.623 194.183 124.623C193.953 124.623 193.723 124.623 193.494 124.394C193.264 124.394 193.264 124.164 193.034 123.935C193.034 123.705 192.804 123.705 192.804 123.476C192.804 123.246 192.804 123.017 193.034 122.787C193.264 122.558 193.494 122.558 193.953 122.558H195.332C195.332 122.328 195.332 122.328 195.102 122.099C194.872 122.099 194.872 121.869 194.643 121.869C194.413 121.869 193.953 121.869 193.723 122.099L193.494 121.64C193.723 121.41 193.953 121.41 194.183 121.41C194.413 121.41 194.643 121.41 194.872 121.41C195.332 121.41 195.562 121.41 195.792 121.64C196.021 121.869 196.251 122.099 196.251 122.558V124.623H195.332V124.853ZM194.872 124.164C195.102 124.164 195.102 123.935 195.102 123.705V123.476H194.183C193.953 123.476 193.723 123.476 193.723 123.476L193.494 123.705C193.494 123.935 193.494 123.935 193.723 123.935L193.953 124.164C194.643 124.164 194.872 124.164 194.872 124.164Z" fill="white"/>
<path d="M197.63 120.262H196.941V124.622H197.63V120.262Z" fill="white"/>
<path d="M181.774 128.296C181.544 128.296 181.314 128.066 181.084 128.066C180.855 128.066 180.625 128.066 180.395 128.296C180.165 128.525 179.935 128.525 179.935 128.755C179.706 128.984 179.706 129.214 179.706 129.444C179.706 129.673 179.706 129.903 179.935 130.132C180.165 130.362 180.165 130.591 180.395 130.591C180.625 130.821 180.855 130.821 181.084 130.821C181.314 130.821 181.544 130.821 181.774 130.591C182.004 130.591 182.233 130.362 182.233 130.132L182.693 130.591C182.463 130.821 182.233 131.05 182.004 131.05C181.774 131.28 181.314 131.28 181.084 131.28C180.625 131.28 180.395 131.28 179.935 131.05C179.706 130.821 179.246 130.591 179.246 130.362C179.016 130.132 179.016 129.673 179.016 129.214C179.016 128.755 179.016 128.525 179.246 128.066C179.476 127.837 179.706 127.378 179.935 127.378C180.165 127.148 180.625 127.148 181.084 127.148C181.314 127.148 181.774 127.148 182.004 127.378C182.233 127.607 182.463 127.607 182.693 127.837L182.233 128.525C182.004 128.525 182.004 128.296 181.774 128.296Z" fill="white"/>
<path d="M184.072 127.147L184.302 127.377C184.302 127.606 184.302 127.606 184.072 127.606L183.842 127.836C183.842 127.836 183.612 127.836 183.612 127.606L183.382 127.377C183.382 127.147 183.382 127.147 183.612 127.147L183.842 126.918C183.842 127.147 184.072 127.147 184.072 127.147ZM183.382 128.525H184.072V131.738H183.382V128.525Z" fill="white"/>
<path d="M187.059 131.508C186.829 131.738 186.6 131.738 186.14 131.738C185.91 131.738 185.68 131.738 185.451 131.508C185.221 131.279 185.221 131.049 185.221 130.82V129.213H184.761V128.754H185.221V127.836H185.91V128.524H186.829V128.983H185.91V130.361C185.91 130.59 185.91 130.59 185.91 130.59H186.14C186.37 130.59 186.6 130.59 186.6 130.361L187.059 131.508Z" fill="white"/>
<path d="M188.208 127.147L188.438 127.377C188.438 127.606 188.438 127.606 188.208 127.606L187.978 127.836C187.749 127.836 187.519 127.836 187.519 127.606L187.289 127.377C187.289 127.147 187.289 127.147 187.519 127.147L187.749 126.918C187.978 127.147 188.208 127.147 188.208 127.147ZM187.519 128.525H188.438V131.738H187.749V128.525H187.519Z" fill="white"/>
<path d="M189.127 128.525H191.885V128.984L190.047 131.05H191.885V131.739H189.127V131.05L190.966 128.984H189.127V128.525Z" fill="white"/>
<path d="M195.102 128.754C195.332 128.983 195.562 129.442 195.562 129.901V130.131H193.264C193.264 130.36 193.494 130.59 193.494 130.59C193.724 130.82 193.953 130.82 194.183 130.82C194.413 130.82 194.413 130.82 194.643 130.82C194.873 130.82 194.873 130.59 195.102 130.59L195.562 131.049C195.332 131.279 195.102 131.279 194.873 131.508C194.643 131.508 194.413 131.738 194.183 131.738C193.953 131.738 193.494 131.738 193.264 131.508C193.034 131.279 192.804 131.279 192.575 131.049C192.345 130.82 192.345 130.59 192.345 130.131C192.345 129.901 192.345 129.442 192.575 129.213C192.804 128.983 192.804 128.754 193.264 128.524C193.494 128.295 193.724 128.295 194.183 128.295C194.413 128.295 194.873 128.524 195.102 128.754ZM194.643 129.672C194.643 129.442 194.643 129.213 194.413 129.213C194.183 128.983 194.183 128.983 193.724 128.983C193.494 128.983 193.264 128.983 193.034 129.213C192.804 129.442 192.804 129.442 192.804 129.672H194.643Z" fill="white"/>
<path d="M199.009 128.754C199.239 128.984 199.239 129.213 199.239 129.672V131.738H198.549V129.902C198.549 129.672 198.549 129.443 198.32 129.443C198.09 129.213 198.09 129.213 197.86 129.213C197.63 129.213 197.4 129.213 197.171 129.443C196.941 129.672 196.941 129.902 196.941 130.131V131.738H196.251V128.525H196.941V129.213C197.171 128.754 197.63 128.525 198.09 128.525C198.32 128.295 198.779 128.525 199.009 128.754Z" fill="white"/>
<path d="M201.537 128.983C201.307 128.983 201.307 128.983 201.307 128.983C201.077 128.983 200.847 128.983 200.847 128.983L200.618 129.213C200.618 129.213 200.618 129.442 200.847 129.442C200.847 129.442 201.077 129.442 201.307 129.672C201.537 129.672 201.767 129.901 201.767 129.901C201.997 129.901 201.997 130.131 202.226 130.131C202.226 130.36 202.456 130.36 202.456 130.59C202.456 130.82 202.226 131.049 201.997 131.279C201.767 131.508 201.537 131.508 201.077 131.508C200.847 131.508 200.618 131.508 200.388 131.279C200.158 131.279 199.928 131.049 199.698 131.049L199.928 130.59C200.158 130.82 200.158 130.82 200.388 130.82C200.618 130.82 200.847 130.82 200.847 130.82C201.077 130.82 201.077 130.82 201.307 130.82L201.537 130.59C201.537 130.59 201.537 130.36 201.307 130.36C201.307 130.36 201.077 130.131 200.847 130.131C200.618 130.131 200.388 129.901 200.388 129.901C200.388 129.901 200.158 129.672 199.928 129.672C199.928 129.442 199.698 129.442 199.698 129.213C199.698 128.983 199.698 128.754 200.158 128.524C200.388 128.295 200.618 128.295 201.077 128.295C201.307 128.295 201.537 128.295 201.767 128.295C201.997 128.295 202.226 128.524 202.226 128.524L201.997 128.983C201.767 129.213 201.767 129.213 201.537 128.983Z" fill="white"/>
<path d="M205.903 128.754C206.133 128.984 206.133 129.213 206.133 129.672V131.738H205.444V129.902C205.444 129.672 205.444 129.443 205.214 129.443C204.984 129.213 204.984 129.213 204.754 129.213C204.524 129.213 204.295 129.213 204.065 129.443C203.835 129.672 203.835 129.902 203.835 130.131V131.738H203.146V127.377H203.835V129.213C204.065 128.754 204.524 128.524 204.984 128.524C205.444 128.295 205.673 128.524 205.903 128.754Z" fill="white"/>
<path d="M207.741 127.147L207.971 127.377C207.971 127.606 207.971 127.606 207.741 127.606L207.512 127.836C207.512 127.836 207.282 127.836 207.282 127.606L207.052 127.377C207.052 127.147 207.052 127.147 207.282 127.147L207.512 126.918C207.512 127.147 207.741 127.147 207.741 127.147ZM207.052 128.525H207.741V131.738H207.052V128.525Z" fill="white"/>
<path d="M211.418 128.524C211.648 128.754 211.878 128.754 211.878 129.213C212.108 129.442 212.108 129.672 212.108 130.131C212.108 130.36 212.108 130.82 211.878 131.049C211.648 131.279 211.648 131.508 211.418 131.508C211.188 131.738 210.959 131.738 210.729 131.738C210.499 131.738 210.269 131.738 210.039 131.508C209.81 131.508 209.81 131.279 209.58 131.049V132.656H208.89V128.524H209.58V128.983C209.81 128.754 209.81 128.754 210.039 128.524C210.269 128.524 210.499 128.295 210.729 128.295C210.959 128.295 211.188 128.524 211.418 128.524ZM211.188 130.82C211.418 130.59 211.418 130.36 211.418 130.131C211.418 129.901 211.418 129.672 211.188 129.442C210.959 129.213 210.729 129.213 210.499 129.213C210.269 129.213 210.039 129.213 209.81 129.442C209.58 129.672 209.58 129.901 209.58 130.131C209.58 130.36 209.58 130.59 209.81 130.82C210.039 131.049 210.269 131.049 210.499 131.049C210.729 131.049 210.959 130.82 211.188 130.82Z" fill="white"/>
<path d="M11.7199 131.508L10.1113 128.065H2.98743L1.37882 131.508H0L5.97486 118.426H7.35368L13.3285 131.508H11.7199ZM3.44704 126.918H9.6517L6.43447 119.803L3.44704 126.918Z" fill="white"/>
<path d="M35.3896 122.558C36.079 123.246 36.3088 124.164 36.3088 125.312V131.279H34.93V125.541C34.93 124.623 34.7002 123.935 34.2406 123.246C33.781 122.787 33.0916 122.558 32.1724 122.558C31.0234 122.558 30.334 123.017 29.6446 123.705C28.9552 124.394 28.7253 125.312 28.7253 126.459V131.279H27.5763V125.541C27.5763 124.623 27.3465 123.935 26.8869 123.246C26.4273 122.787 25.7379 122.558 24.8187 122.558C23.6697 122.558 22.9803 123.017 22.2909 123.705C21.6015 124.394 21.3717 125.312 21.3717 126.459V131.279H20.2227V121.64H21.3717V123.935C21.6015 123.246 22.2909 122.558 22.7505 122.099C23.4399 121.64 24.1293 121.41 25.0485 121.41C25.9677 121.41 26.6571 121.64 27.3465 122.099C28.0359 122.558 28.2657 123.246 28.4955 124.164C28.7253 123.246 29.185 122.558 29.8744 122.099C30.5638 121.64 31.483 121.41 32.4022 121.41C33.781 121.64 34.7002 122.099 35.3896 122.558Z" fill="white"/>
<path d="M47.1096 123.017C47.799 123.935 48.2586 125.312 48.2586 126.918H39.9857C39.9857 128.066 40.4454 128.754 41.1348 129.443C41.8242 130.131 42.7434 130.361 43.6626 130.361C44.352 130.361 44.8116 130.361 45.501 130.131C45.9606 129.902 46.4202 129.672 46.8798 129.213L47.5692 129.902C47.1096 130.361 46.4202 130.82 45.9606 131.049C45.2712 131.279 44.5818 131.509 43.6626 131.509C42.7434 131.509 41.8242 131.279 41.1348 130.82C40.4454 130.361 39.7559 129.902 39.2963 128.984C38.8367 128.295 38.6069 127.377 38.6069 126.459C38.6069 125.541 38.8367 124.623 39.2963 123.935C39.7559 123.246 40.2156 122.558 41.1348 122.099C41.8242 121.64 42.7434 121.41 43.6626 121.41C45.0414 121.64 46.1904 122.099 47.1096 123.017ZM47.1096 126C47.1096 125.082 46.65 124.164 46.1904 123.476C45.501 122.787 44.8116 122.558 43.6626 122.558C42.7434 122.558 41.8242 122.787 41.1348 123.476C40.4454 124.164 39.9857 124.853 39.9857 126H47.1096Z" fill="white"/>
<path d="M65.9534 122.558C66.6428 123.246 66.8726 124.164 66.8726 125.312V131.279H65.4938V125.541C65.4938 124.623 65.264 123.935 64.8044 123.246C64.3448 122.787 63.6554 122.558 62.7362 122.558C61.5872 122.558 60.8978 123.017 60.2083 123.705C59.5189 124.394 59.2891 125.312 59.2891 126.459V131.279H57.9103V125.541C57.9103 124.623 57.6805 123.935 57.2209 123.246C56.7613 122.787 56.0719 122.558 55.1527 122.558C54.0037 122.558 53.3143 123.017 52.6249 123.705C51.9355 124.394 51.7057 125.312 51.7057 126.459V131.279H50.5566V121.64H51.7057V123.935C51.9355 123.246 52.6249 122.558 53.0845 122.099C53.7739 121.64 54.4633 121.41 55.3825 121.41C56.3017 121.41 56.9911 121.64 57.6805 122.099C58.3699 122.558 58.5997 123.246 58.8295 124.164C59.0593 123.246 59.5189 122.558 60.2083 122.099C60.8978 121.64 61.817 121.41 62.7362 121.41C64.3448 121.64 65.264 122.099 65.9534 122.558Z" fill="white"/>
<path d="M77.9031 122.328C78.5925 122.787 79.2819 123.246 79.5117 124.165C79.9713 124.853 80.2011 125.771 80.2011 126.689C80.2011 127.607 79.9713 128.525 79.5117 129.214C79.0521 129.902 78.5925 130.591 77.9031 131.05C77.2137 131.509 76.2944 131.738 75.3752 131.738C74.456 131.738 73.7666 131.509 73.0772 131.05C72.3878 130.591 71.9282 130.132 71.4686 129.443V131.738H70.3196V117.738H71.4686V123.935C71.9282 123.246 72.3878 122.558 73.0772 122.328C73.7666 121.869 74.456 121.64 75.3752 121.64C76.5242 121.64 77.2137 121.869 77.9031 122.328ZM77.2137 129.902C77.6733 129.673 78.1329 129.214 78.5925 128.525C78.8223 127.837 79.0521 127.378 79.0521 126.46C79.0521 125.771 78.8223 125.083 78.5925 124.394C78.3627 123.705 77.9031 123.246 77.2137 123.017C76.754 122.787 76.0646 122.558 75.3752 122.558C74.6858 122.558 73.9964 122.787 73.5368 123.017C73.0772 123.246 72.6176 123.705 72.158 124.394C71.9282 125.083 71.6984 125.542 71.6984 126.46C71.6984 127.148 71.9282 127.837 72.158 128.525C72.3878 129.214 72.8474 129.673 73.5368 129.902C73.9964 130.132 74.6858 130.361 75.3752 130.361C76.0646 130.361 76.754 130.361 77.2137 129.902Z" fill="white"/>
<path d="M90.0825 123.017C90.7719 123.935 91.2315 125.312 91.2315 126.918H82.9586C82.9586 128.066 83.4183 128.754 84.1077 129.443C84.7971 130.131 85.7163 130.361 86.6355 130.361C87.3249 130.361 87.7845 130.361 88.4739 130.131C88.9335 129.902 89.3931 129.672 89.8527 129.213L90.5421 129.902C90.0825 130.361 89.3931 130.82 88.9335 131.049C88.2441 131.279 87.5547 131.509 86.6355 131.509C85.7163 131.509 84.7971 131.279 84.1077 130.82C83.4183 130.361 82.7288 129.902 82.2692 128.984C81.8096 128.295 81.5798 127.377 81.5798 126.459C81.5798 125.541 81.8096 124.623 82.2692 123.935C82.7288 123.246 83.1884 122.558 84.1077 122.099C84.7971 121.64 85.7163 121.41 86.6355 121.41C88.2441 121.64 89.3931 122.099 90.0825 123.017ZM90.0825 126C90.0825 125.082 89.6229 124.164 89.1633 123.476C88.4739 122.787 87.7845 122.558 86.6355 122.558C85.7163 122.558 84.7971 122.787 84.1077 123.476C83.4183 124.164 82.9586 124.853 82.9586 126H90.0825Z" fill="white"/>
<path d="M96.5171 122.327C97.2065 121.868 97.8959 121.639 98.8151 121.639V122.786C97.6661 122.786 96.9767 123.016 96.2873 123.704C95.5979 124.393 95.3681 125.081 95.1383 126.229V131.508H93.9893V121.639H95.1383V123.934C95.3681 123.245 95.8277 122.557 96.5171 122.327Z" fill="white"/>
<path d="M112.144 122.327C112.833 122.786 113.522 123.245 113.982 124.163C114.442 124.852 114.671 125.77 114.671 126.688C114.671 127.606 114.442 128.524 113.982 129.212C113.522 129.901 113.063 130.589 112.144 131.049C111.454 131.508 110.535 131.737 109.616 131.737C108.697 131.737 107.777 131.508 107.088 131.049C106.398 130.589 105.709 130.13 105.249 129.212C104.79 128.524 104.56 127.606 104.56 126.688C104.56 125.77 104.79 124.852 105.249 124.163C105.709 123.475 106.169 122.786 107.088 122.327C107.777 121.868 108.697 121.639 109.616 121.639C110.535 121.639 111.454 121.868 112.144 122.327ZM107.777 123.245C107.318 123.475 106.858 123.934 106.398 124.622C106.169 125.311 105.939 125.77 105.939 126.688C105.939 127.376 106.169 128.065 106.398 128.753C106.628 129.442 107.088 129.901 107.777 130.13C108.237 130.36 108.926 130.589 109.616 130.589C110.305 130.589 110.995 130.36 111.454 130.13C111.914 129.901 112.373 129.442 112.833 128.753C113.063 128.065 113.293 127.376 113.293 126.688C113.293 125.999 113.063 125.311 112.833 124.622C112.603 123.934 112.144 123.475 111.454 123.245C110.995 123.016 110.305 122.786 109.616 122.786C108.926 122.786 108.237 122.786 107.777 123.245Z" fill="white"/>
<path d="M119.267 119.114C118.808 119.573 118.808 120.032 118.808 120.491V121.868H121.795V122.786H118.808V131.278H117.659V122.786H116.51V121.868H117.659V120.721C117.659 120.032 117.889 119.573 118.118 119.114C118.348 118.655 118.808 118.196 119.267 117.967C119.727 117.737 120.187 117.508 120.876 117.508C121.565 117.508 122.025 117.737 122.714 117.967L121.795 118.885C121.336 118.655 120.876 118.426 120.416 118.426C119.957 118.655 119.497 118.655 119.267 119.114Z" fill="white"/>
</g>
<defs>
<clipPath id="clip0_8513_665">
<rect width="256" height="140" fill="white"/>
</clipPath>
</defs>
</svg>
